<?xml version="1.0" standalone="no"?>
<!DOCTYPE svg PUBLIC "-//W3C//DTD SVG 20010904//EN"
 "http://www.w3.org/TR/2001/REC-SVG-20010904/DTD/svg10.dtd">
<svg version="1.0" xmlns="http://www.w3.org/2000/svg"
 width="1024.000000pt" height="1024.000000pt" viewBox="0 0 1024.000000 1024.000000"
 preserveAspectRatio="xMidYMid meet">
<metadata>
Created by potrace 1.11, written by Peter Selinger 2001-2013
</metadata>
<g transform="translate(0.000000,1024.000000) scale(0.100000,-0.100000)"
fill="#000000" stroke="none">
<path d="M4407 10184 c-1 -1 -65 -4 -142 -8 -77 -3 -151 -8 -165 -10 -14 -3
-47 -7 -75 -10 -102 -12 -142 -18 -250 -41 -331 -71 -617 -204 -845 -394 -180
-149 -375 -389 -512 -629 -28 -50 -141 -276 -166 -332 -108 -249 -201 -509
-284 -795 -23 -82 -20 -67 -57 -227 -33 -139 -34 -142 -57 -278 -35 -210 -39
-263 -39 -490 0 -243 8 -324 49 -508 11 -49 70 -238 76 -247 5 -5 8 -12 9 -15
0 -9 13 -43 44 -115 62 -147 172 -334 276 -470 61 -79 164 -208 172 -215 3 -3
38 -45 78 -95 40 -49 80 -99 89 -110 25 -31 192 -263 250 -347 76 -111 127
-221 158 -343 4 -16 8 -32 9 -35 0 -3 4 -27 9 -53 4 -27 9 -59 12 -70 6 -32 7
-263 0 -322 -8 -73 -44 -249 -68 -330 -61 -210 -180 -445 -271 -535 -50 -50
-145 -109 -205 -126 -74 -22 -223 -22 -281 0 -94 35 -154 108 -175 214 -27
131 3 303 125 703 32 107 59 197 59 200 0 7 -1368 5 -1375 -2 -5 -6 -90 -286
-100 -330 -2 -8 -28 -101 -58 -205 -69 -236 -77 -266 -121 -469 -35 -165 -42
-211 -62 -385 -7 -69 -7 -309 0 -360 22 -143 28 -174 50 -243 82 -258 250
-427 531 -532 96 -36 222 -69 305 -80 25 -3 52 -8 60 -10 71 -18 549 -31 700
-20 109 8 183 15 230 20 568 67 929 244 1266 621 41 46 156 202 206 279 100
155 163 276 248 470 28 66 56 129 60 140 99 221 304 858 344 1065 3 14 10 50
16 80 24 118 38 200 45 275 3 33 8 69 10 80 6 28 18 249 18 320 -1 71 -12 275
-18 303 -2 11 -6 42 -10 69 -11 76 -53 238 -95 364 -89 269 -233 523 -432 764
-131 159 -384 475 -420 525 -26 36 -51 70 -56 75 -60 73 -154 255 -173 335
-33 143 -41 205 -41 325 0 104 5 141 31 245 146 582 318 805 631 816 82 3 103
0 154 -21 72 -29 109 -63 143 -133 46 -93 39 -252 -19 -462 -11 -41 -22 -82
-23 -90 -2 -8 -4 -15 -4 -15 -1 0 -34 -98 -75 -217 l-73 -218 696 0 697 0 68
228 c38 125 81 268 97 317 28 89 75 254 84 291 2 10 9 39 16 64 6 25 12 52 14
60 36 161 44 201 49 235 3 22 8 51 11 65 43 239 33 557 -23 745 -130 431 -552
638 -1320 649 -57 0 -104 0 -105 0z"/>
<path d="M6381 8366 c-6 -17 -23 -76 -40 -131 -16 -55 -73 -244 -126 -420
-101 -336 -199 -663 -310 -1030 -36 -121 -73 -242 -81 -270 -15 -45 -85 -281
-119 -395 -7 -25 -30 -99 -50 -165 -39 -128 -117 -389 -141 -467 -8 -27 -21
-70 -29 -98 -8 -27 -21 -71 -29 -97 -8 -27 -30 -100 -49 -163 -57 -185 -437
-1448 -459 -1525 -11 -38 -23 -77 -26 -85 -3 -8 -6 -19 -7 -25 -2 -5 -10 -32
-19 -60 -26 -83 -167 -549 -170 -565 -2 -8 -48 -159 -101 -335 -54 -176 -101
-333 -105 -350 -5 -16 -27 -91 -50 -165 -23 -74 -43 -142 -45 -150 -2 -8 -16
-53 -30 -100 -15 -47 -33 -105 -40 -130 -7 -25 -54 -182 -105 -350 -51 -168
-93 -309 -94 -315 -3 -12 -36 -123 -44 -145 -3 -8 -6 -19 -8 -25 -1 -5 -46
-154 -99 -330 -129 -424 -129 -424 -121 -432 4 -4 326 -7 716 -8 627 0 711 1
715 15 2 8 79 265 170 570 92 305 168 562 170 570 2 8 13 44 24 80 11 36 71
238 135 450 63 212 120 399 125 415 5 17 58 190 116 385 58 195 115 382 125
415 l20 60 257 1 c249 1 514 9 561 19 12 2 57 7 100 10 42 3 84 7 92 10 8 2
33 6 55 10 61 9 96 15 145 26 25 6 52 12 60 14 104 21 269 79 380 132 472 226
772 637 1049 1435 41 120 240 763 286 928 12 44 122 410 150 500 159 515 238
806 270 990 48 282 54 533 15 705 -69 310 -272 474 -692 559 -123 25 -160 30
-273 41 -33 3 -78 9 -100 11 -22 3 -518 7 -1102 9 l-1062 2 -10 -31z m1464
-1470 c163 -20 213 -89 202 -280 -7 -102 -10 -126 -27 -206 -5 -25 -12 -58
-15 -75 -3 -23 -63 -260 -90 -355 -16 -62 -87 -295 -100 -335 -10 -27 -18 -54
-20 -60 -4 -20 -38 -133 -70 -235 -67 -209 -136 -384 -205 -515 -98 -188 -181
-269 -324 -315 -67 -22 -114 -24 -422 -20 -130 2 -132 2 -126 23 2 12 43 148
89 302 47 154 89 296 95 315 5 19 28 94 50 165 21 72 41 137 43 145 2 8 76
256 165 550 88 294 162 542 164 550 2 8 11 38 20 65 8 28 31 102 49 165 l35
115 153 5 c182 6 253 5 334 -4z"/>
</g>
</svg>
